<svg width="408" height="96" viewBox="0 0 408 96" fill="none" xmlns="http://www.w3.org/2000/svg">
<path d="M87.8216 67.8694C87.3928 66.6656 86.8916 65.501 86.4149 64.4219C85.6809 62.762 84.9123 61.0989 84.1688 59.4914L84.1099 59.3638C77.4787 45.0037 70.3612 30.4473 62.9557 16.0991L62.6413 15.4899C61.8858 14.0248 61.1049 12.5098 60.3034 11.0212C59.353 9.13738 58.1998 7.3625 56.8642 5.72802C55.3607 3.93441 53.4812 2.49189 51.3585 1.50219C49.2357 0.512488 46.9211 -0.000294057 44.5781 1.26509e-07C42.2351 0.00029431 39.9208 0.513656 37.7981 1.50389C35.6757 2.49413 33.7965 3.93713 32.2936 5.7311C30.9595 7.36596 29.8069 9.14045 28.8562 11.0234C28.0478 12.5253 27.2596 14.0543 26.4973 15.533L26.2054 16.099C18.7996 30.4482 11.6822 45.0046 5.05103 59.3635L4.95441 59.5724C4.22378 61.1539 3.46838 62.7892 2.74666 64.4213C2.26974 65.4995 1.76923 66.6632 1.33991 67.87C0.110295 71.1577 -0.28153 74.6988 0.199662 78.175C0.709957 81.688 2.13083 85.0073 4.32157 87.8037C6.5123 90.6 9.3969 92.7766 12.6896 94.1178C15.1767 95.124 17.836 95.6384 20.5196 95.6324C21.3626 95.6321 22.2049 95.5831 23.0422 95.4856C26.4364 95.0532 29.7099 93.9487 32.6707 92.2371C36.5546 90.0552 40.3903 86.8575 44.5805 82.2881C48.7707 86.8575 52.6065 90.0552 56.4903 92.2371C59.4511 93.949 62.7247 95.0532 66.1187 95.4856C66.9561 95.5831 67.7986 95.6321 68.6416 95.6324C71.325 95.6384 73.9839 95.124 76.4709 94.1178C79.7637 92.7766 82.6485 90.6 84.8394 87.8037C87.0303 85.0073 88.4513 81.6883 88.9617 78.175C89.4423 74.6985 89.0505 71.1574 87.8216 67.8694ZM44.5805 72.851C39.3934 66.2759 36.0648 60.1701 34.8969 55.0514C34.4184 53.1334 34.3054 51.1427 34.5639 49.1828C34.7681 47.7463 35.2958 46.3745 36.1075 45.1708C37.1063 43.8755 38.3898 42.8266 39.859 42.1048C41.3281 41.3834 42.9437 41.0081 44.5811 41.0081C46.2188 41.0084 47.8341 41.3837 49.3033 42.1057C50.7724 42.8275 52.0557 43.8764 53.0545 45.1717C53.8661 46.376 54.3939 47.7478 54.598 49.1846C54.8559 51.1454 54.7427 53.1366 54.2633 55.0553C53.0942 60.1734 49.7665 66.2774 44.5805 72.851ZM82.9031 77.3095C82.5463 79.7658 81.5526 82.0867 80.021 84.0417C78.4891 85.9971 76.4721 87.5192 74.1698 88.457C71.8417 89.3897 69.3153 89.7202 66.8252 89.4178C64.2369 89.0843 61.7424 88.2325 59.492 86.9131C56.0349 84.9709 52.5354 81.9892 48.5974 77.6152C54.8664 69.8852 58.781 62.7602 60.2305 56.4141C60.8829 53.7454 61.0242 50.9777 60.6474 48.257C60.3055 45.9131 59.4352 43.6771 58.1024 41.7175C56.5409 39.6035 54.5039 37.8848 52.1555 36.7004C49.8068 35.5161 47.2125 34.8989 44.5811 34.8989C41.95 34.8989 39.3554 35.5158 37.0067 36.6998C34.6581 37.8839 32.6211 39.6023 31.0596 41.7163C29.7269 43.6753 28.8568 45.9107 28.5146 48.254C28.1376 50.9739 28.2782 53.74 28.9291 56.4079C30.3776 62.7567 34.2926 69.8834 40.5637 77.6158C36.6257 81.9892 33.1262 84.9709 29.669 86.9134C27.4186 88.2325 24.9244 89.0845 22.336 89.4178C19.8457 89.7202 17.3192 89.3897 14.991 88.457C12.6887 87.5192 10.6717 85.9971 9.14001 84.042C7.6083 82.0867 6.61492 79.7658 6.25827 77.3095C5.91522 74.8126 6.20717 72.2697 7.10722 69.915C7.44934 68.9533 7.84972 68.0096 8.34572 66.8883C9.04742 65.302 9.79207 63.6897 10.5124 62.1306L10.6091 61.9211C17.2032 47.6426 24.2811 33.1671 31.6466 18.8962L31.9397 18.328C32.6895 16.8732 33.4651 15.3689 34.2475 13.9154C34.9958 12.4173 35.9016 11.0028 36.9497 9.69593C37.8782 8.57413 39.0437 7.67094 40.3625 7.05092C41.6817 6.43086 43.1215 6.1093 44.5793 6.10918C46.0371 6.10906 47.4773 6.43041 48.7961 7.05023C50.1153 7.67005 51.2808 8.57306 52.2096 9.6947C53.2583 11.0006 54.1644 12.4146 54.9121 13.9127C55.6873 15.3532 56.456 16.8439 57.1995 18.2854L57.5145 18.8968C64.8797 33.1662 71.9574 47.6414 78.5521 61.9223L78.6116 62.0508C79.3444 63.6362 80.102 65.2748 80.8153 66.8889C81.312 68.0117 81.7131 68.9563 82.0544 69.9144C82.9539 72.2694 83.2459 74.8123 82.9031 77.3095Z" fill="#590BD8"/>
<path d="M158.212 61.0506H141.596L138.846 69H130.06L145.062 27.2206H154.805L169.807 69H160.961L158.212 61.0506ZM155.941 54.3563L149.904 36.9034L143.867 54.3563H155.941ZM206.197 51.7264C206.197 52.9218 206.117 53.9977 205.958 54.954H181.751C181.95 57.3448 182.787 59.2176 184.261 60.5724C185.735 61.9272 187.548 62.6046 189.7 62.6046C192.808 62.6046 195.02 61.2697 196.334 58.6H205.36C204.403 61.7877 202.571 64.4176 199.861 66.4896C197.151 68.5218 193.824 69.5379 189.879 69.5379C186.692 69.5379 183.823 68.8406 181.272 67.446C178.762 66.0115 176.79 63.9992 175.355 61.4092C173.961 58.8191 173.263 55.8306 173.263 52.4436C173.263 49.0168 173.961 46.0084 175.355 43.4183C176.75 40.8283 178.702 38.836 181.213 37.4413C183.723 36.0467 186.612 35.3494 189.879 35.3494C193.027 35.3494 195.836 36.0267 198.307 37.3815C200.817 38.7363 202.75 40.6689 204.105 43.1793C205.499 45.6498 206.197 48.4988 206.197 51.7264ZM197.53 49.3356C197.49 47.1839 196.713 45.4704 195.199 44.1953C193.685 42.8804 191.832 42.2229 189.64 42.2229C187.568 42.2229 185.815 42.8605 184.38 44.1356C182.986 45.3708 182.129 47.1042 181.81 49.3356H197.53ZM220.672 41.0275C221.748 39.2743 223.143 37.8996 224.856 36.9034C226.609 35.9072 228.602 35.4091 230.833 35.4091V44.1953H228.622C225.992 44.1953 223.999 44.813 222.645 46.0482C221.33 47.2835 220.672 49.4352 220.672 52.5034V69H212.304V35.8873H220.672V41.0275ZM251.173 69.5379C247.985 69.5379 245.116 68.8406 242.566 67.446C240.016 66.0115 238.003 63.9992 236.529 61.4092C235.095 58.8191 234.377 55.8306 234.377 52.4436C234.377 49.0567 235.114 46.0681 236.589 43.4781C238.103 40.8881 240.155 38.8957 242.745 37.5011C245.335 36.0666 248.224 35.3494 251.412 35.3494C254.6 35.3494 257.488 36.0666 260.079 37.5011C262.669 38.8957 264.701 40.8881 266.175 43.4781C267.689 46.0681 268.446 49.0567 268.446 52.4436C268.446 55.8306 267.669 58.8191 266.115 61.4092C264.601 63.9992 262.529 66.0115 259.899 67.446C257.309 68.8406 254.4 69.5379 251.173 69.5379ZM251.173 62.246C252.687 62.246 254.101 61.8873 255.416 61.1701C256.771 60.413 257.847 59.2973 258.644 57.823C259.441 56.3486 259.839 54.5555 259.839 52.4436C259.839 49.2957 259.003 46.885 257.329 45.2114C255.695 43.498 253.683 42.6413 251.292 42.6413C248.901 42.6413 246.889 43.498 245.256 45.2114C243.662 46.885 242.865 49.2957 242.865 52.4436C242.865 55.5915 243.642 58.0222 245.196 59.7356C246.79 61.4092 248.782 62.246 251.173 62.246ZM302.975 27.2804V34.0344H291.858V69H283.49V34.0344H272.373V27.2804H302.975ZM323.784 69.5379C320.597 69.5379 317.728 68.8406 315.177 67.446C312.627 66.0115 310.615 63.9992 309.141 61.4092C307.706 58.8191 306.989 55.8306 306.989 52.4436C306.989 49.0567 307.726 46.0681 309.2 43.4781C310.715 40.8881 312.767 38.8957 315.357 37.5011C317.947 36.0666 320.836 35.3494 324.023 35.3494C327.211 35.3494 330.1 36.0666 332.69 37.5011C335.28 38.8957 337.312 40.8881 338.787 43.4781C340.301 46.0681 341.058 49.0567 341.058 52.4436C341.058 55.8306 340.281 58.8191 338.727 61.4092C337.213 63.9992 335.141 66.0115 332.511 67.446C329.921 68.8406 327.012 69.5379 323.784 69.5379ZM323.784 62.246C325.298 62.246 326.713 61.8873 328.028 61.1701C329.383 60.413 330.459 59.2973 331.256 57.823C332.052 56.3486 332.451 54.5555 332.451 52.4436C332.451 49.2957 331.614 46.885 329.941 45.2114C328.307 43.498 326.295 42.6413 323.904 42.6413C321.513 42.6413 319.501 43.498 317.867 45.2114C316.273 46.885 315.476 49.2957 315.476 52.4436C315.476 55.5915 316.253 58.0222 317.807 59.7356C319.401 61.4092 321.393 62.246 323.784 62.246ZM378.456 35.8873V69H370.028V64.8161C368.952 66.2506 367.538 67.3862 365.785 68.223C364.071 69.0199 362.198 69.4184 360.166 69.4184C357.576 69.4184 355.285 68.8805 353.293 67.8046C351.3 66.6889 349.726 65.0751 348.571 62.9632C347.455 60.8115 346.897 58.2613 346.897 55.3126V35.8873H355.265V54.1172C355.265 56.7471 355.922 58.7793 357.237 60.2138C358.552 61.6084 360.345 62.3057 362.617 62.3057C364.928 62.3057 366.741 61.6084 368.056 60.2138C369.371 58.7793 370.028 56.7471 370.028 54.1172V35.8873H378.456ZM395.08 41.0275C396.156 39.2743 397.55 37.8996 399.264 36.9034C401.017 35.9072 403.009 35.4091 405.241 35.4091V44.1953H403.029C400.399 44.1953 398.407 44.813 397.052 46.0482C395.737 47.2835 395.08 49.4352 395.08 52.5034V69H386.712V35.8873H395.08V41.0275Z" fill="#590BD8"/>
</svg>
